<mxfile host="app.diagrams.net" modified="2024-02-19T04:08:10.330Z" agent="Mozilla/5.0 (Windows NT 10.0; Win64; x64) AppleWebKit/537.36 (KHTML, like Gecko) Chrome/121.0.0.0 Safari/537.36" etag="9YByE9HMxEG6qC2dtmF4" version="23.1.5" type="github">
  <diagram name="Page-1" id="3F7PLVvAaZyHWnzhFyVO">
    <mxGraphModel dx="1270" dy="650" grid="1" gridSize="10" guides="1" tooltips="1" connect="1" arrows="1" fold="1" page="1" pageScale="1" pageWidth="1920" pageHeight="1200" math="0" shadow="0">
      <root>
        <mxCell id="0" />
        <mxCell id="1" parent="0" />
        <mxCell id="rFSqbBbNJpb0EMWmcOZD-100" value="" style="endArrow=none;html=1;rounded=0;entryX=0.001;entryY=0.169;entryDx=0;entryDy=0;entryPerimeter=0;strokeColor=default;shadow=1;" edge="1" parent="1" target="rFSqbBbNJpb0EMWmcOZD-35">
          <mxGeometry width="50" height="50" relative="1" as="geometry">
            <mxPoint x="290" y="360" as="sourcePoint" />
            <mxPoint x="361" y="364" as="targetPoint" />
          </mxGeometry>
        </mxCell>
        <mxCell id="rFSqbBbNJpb0EMWmcOZD-101" value="" style="endArrow=none;html=1;rounded=0;exitX=0.332;exitY=-0.015;exitDx=0;exitDy=0;exitPerimeter=0;entryX=0.003;entryY=0.251;entryDx=0;entryDy=0;entryPerimeter=0;strokeColor=default;shadow=1;" edge="1" parent="1" source="rFSqbBbNJpb0EMWmcOZD-21" target="rFSqbBbNJpb0EMWmcOZD-35">
          <mxGeometry width="50" height="50" relative="1" as="geometry">
            <mxPoint x="300" y="370" as="sourcePoint" />
            <mxPoint x="360" y="400" as="targetPoint" />
          </mxGeometry>
        </mxCell>
        <mxCell id="rFSqbBbNJpb0EMWmcOZD-104" value="" style="endArrow=none;html=1;rounded=0;entryX=-0.001;entryY=0.757;entryDx=0;entryDy=0;entryPerimeter=0;strokeColor=default;shadow=1;" edge="1" parent="1" target="rFSqbBbNJpb0EMWmcOZD-35">
          <mxGeometry width="50" height="50" relative="1" as="geometry">
            <mxPoint x="290" y="480" as="sourcePoint" />
            <mxPoint x="340" y="480" as="targetPoint" />
          </mxGeometry>
        </mxCell>
        <mxCell id="rFSqbBbNJpb0EMWmcOZD-105" value="" style="endArrow=none;html=1;rounded=0;exitX=0.837;exitY=-0.014;exitDx=0;exitDy=0;exitPerimeter=0;entryX=0;entryY=0.833;entryDx=0;entryDy=0;entryPerimeter=0;strokeColor=default;shadow=1;" edge="1" parent="1" source="rFSqbBbNJpb0EMWmcOZD-21" target="rFSqbBbNJpb0EMWmcOZD-35">
          <mxGeometry width="50" height="50" relative="1" as="geometry">
            <mxPoint x="290" y="480" as="sourcePoint" />
            <mxPoint x="359" y="540" as="targetPoint" />
          </mxGeometry>
        </mxCell>
        <mxCell id="rFSqbBbNJpb0EMWmcOZD-106" value="" style="endArrow=none;html=1;rounded=0;strokeColor=default;shadow=1;" edge="1" parent="1">
          <mxGeometry width="50" height="50" relative="1" as="geometry">
            <mxPoint x="291" y="420" as="sourcePoint" />
            <mxPoint x="340" y="420" as="targetPoint" />
          </mxGeometry>
        </mxCell>
        <mxCell id="rFSqbBbNJpb0EMWmcOZD-107" value="" style="endArrow=none;html=1;rounded=0;exitX=0.582;exitY=0.005;exitDx=0;exitDy=0;exitPerimeter=0;entryX=0.006;entryY=0.503;entryDx=0;entryDy=0;entryPerimeter=0;strokeColor=default;shadow=1;" edge="1" parent="1" source="rFSqbBbNJpb0EMWmcOZD-21" target="rFSqbBbNJpb0EMWmcOZD-35">
          <mxGeometry width="50" height="50" relative="1" as="geometry">
            <mxPoint x="300" y="460" as="sourcePoint" />
            <mxPoint x="370" y="430" as="targetPoint" />
          </mxGeometry>
        </mxCell>
        <mxCell id="rFSqbBbNJpb0EMWmcOZD-160" value="" style="endArrow=classic;html=1;rounded=0;entryX=0.607;entryY=0.992;entryDx=0;entryDy=0;entryPerimeter=0;strokeColor=default;shadow=1;" edge="1" parent="1" target="rFSqbBbNJpb0EMWmcOZD-108">
          <mxGeometry width="50" height="50" relative="1" as="geometry">
            <mxPoint x="390" y="470" as="sourcePoint" />
            <mxPoint x="440" y="420" as="targetPoint" />
          </mxGeometry>
        </mxCell>
        <mxCell id="rFSqbBbNJpb0EMWmcOZD-161" value="" style="endArrow=classic;html=1;rounded=0;entryX=0.607;entryY=0.992;entryDx=0;entryDy=0;entryPerimeter=0;strokeColor=default;shadow=1;" edge="1" parent="1">
          <mxGeometry width="50" height="50" relative="1" as="geometry">
            <mxPoint x="390" y="450" as="sourcePoint" />
            <mxPoint x="435" y="450" as="targetPoint" />
          </mxGeometry>
        </mxCell>
        <mxCell id="rFSqbBbNJpb0EMWmcOZD-162" value="" style="endArrow=classic;html=1;rounded=0;entryX=0.607;entryY=0.992;entryDx=0;entryDy=0;entryPerimeter=0;strokeColor=default;shadow=1;" edge="1" parent="1">
          <mxGeometry width="50" height="50" relative="1" as="geometry">
            <mxPoint x="390" y="430" as="sourcePoint" />
            <mxPoint x="435" y="430" as="targetPoint" />
          </mxGeometry>
        </mxCell>
        <mxCell id="rFSqbBbNJpb0EMWmcOZD-163" value="" style="endArrow=classic;html=1;rounded=0;entryX=0.607;entryY=0.992;entryDx=0;entryDy=0;entryPerimeter=0;strokeColor=default;shadow=1;" edge="1" parent="1">
          <mxGeometry width="50" height="50" relative="1" as="geometry">
            <mxPoint x="390" y="410" as="sourcePoint" />
            <mxPoint x="435" y="410" as="targetPoint" />
          </mxGeometry>
        </mxCell>
        <mxCell id="rFSqbBbNJpb0EMWmcOZD-164" value="" style="endArrow=classic;html=1;rounded=0;entryX=0.607;entryY=0.992;entryDx=0;entryDy=0;entryPerimeter=0;strokeColor=default;shadow=1;" edge="1" parent="1">
          <mxGeometry width="50" height="50" relative="1" as="geometry">
            <mxPoint x="390" y="390" as="sourcePoint" />
            <mxPoint x="435" y="390" as="targetPoint" />
          </mxGeometry>
        </mxCell>
        <mxCell id="rFSqbBbNJpb0EMWmcOZD-165" value="" style="endArrow=classic;html=1;rounded=0;entryX=0.607;entryY=0.992;entryDx=0;entryDy=0;entryPerimeter=0;strokeColor=default;shadow=1;" edge="1" parent="1">
          <mxGeometry width="50" height="50" relative="1" as="geometry">
            <mxPoint x="390" y="370" as="sourcePoint" />
            <mxPoint x="435" y="370" as="targetPoint" />
          </mxGeometry>
        </mxCell>
        <mxCell id="rFSqbBbNJpb0EMWmcOZD-166" value="" style="endArrow=classic;html=1;rounded=0;entryX=0.607;entryY=0.992;entryDx=0;entryDy=0;entryPerimeter=0;strokeColor=default;shadow=1;" edge="1" parent="1">
          <mxGeometry width="50" height="50" relative="1" as="geometry">
            <mxPoint x="390" y="350" as="sourcePoint" />
            <mxPoint x="435" y="350" as="targetPoint" />
          </mxGeometry>
        </mxCell>
        <mxCell id="rFSqbBbNJpb0EMWmcOZD-167" value="" style="endArrow=classic;html=1;rounded=0;entryX=0.607;entryY=0.992;entryDx=0;entryDy=0;entryPerimeter=0;strokeColor=default;shadow=1;" edge="1" parent="1">
          <mxGeometry width="50" height="50" relative="1" as="geometry">
            <mxPoint x="390" y="490" as="sourcePoint" />
            <mxPoint x="435" y="490" as="targetPoint" />
          </mxGeometry>
        </mxCell>
        <mxCell id="rFSqbBbNJpb0EMWmcOZD-170" value="" style="endArrow=classic;html=1;rounded=0;entryX=0.607;entryY=0.992;entryDx=0;entryDy=0;entryPerimeter=0;strokeColor=default;shadow=1;" edge="1" parent="1">
          <mxGeometry width="50" height="50" relative="1" as="geometry">
            <mxPoint x="390" y="510" as="sourcePoint" />
            <mxPoint x="435" y="510" as="targetPoint" />
          </mxGeometry>
        </mxCell>
        <mxCell id="rFSqbBbNJpb0EMWmcOZD-171" value="" style="endArrow=classic;html=1;rounded=0;entryX=0.607;entryY=0.992;entryDx=0;entryDy=0;entryPerimeter=0;strokeColor=default;shadow=1;" edge="1" parent="1">
          <mxGeometry width="50" height="50" relative="1" as="geometry">
            <mxPoint x="390" y="530" as="sourcePoint" />
            <mxPoint x="435" y="530" as="targetPoint" />
          </mxGeometry>
        </mxCell>
        <mxCell id="rFSqbBbNJpb0EMWmcOZD-172" value="" style="endArrow=classic;html=1;rounded=0;entryX=0.607;entryY=0.992;entryDx=0;entryDy=0;entryPerimeter=0;strokeColor=default;shadow=1;" edge="1" parent="1">
          <mxGeometry width="50" height="50" relative="1" as="geometry">
            <mxPoint x="390" y="550" as="sourcePoint" />
            <mxPoint x="435" y="550" as="targetPoint" />
          </mxGeometry>
        </mxCell>
        <mxCell id="rFSqbBbNJpb0EMWmcOZD-108" value="" style="rounded=1;whiteSpace=wrap;html=1;strokeWidth=3;direction=south;strokeColor=#666666;fillColor=#f5f5f5;gradientColor=#b3b3b3;shadow=1;" vertex="1" parent="1">
          <mxGeometry x="437" y="330" width="40" height="230" as="geometry" />
        </mxCell>
        <mxCell id="rFSqbBbNJpb0EMWmcOZD-111" value="" style="endArrow=none;dashed=1;html=1;rounded=0;entryX=0.083;entryY=0.003;entryDx=0;entryDy=0;entryPerimeter=0;exitX=0.084;exitY=1.015;exitDx=0;exitDy=0;exitPerimeter=0;strokeColor=default;shadow=0;" edge="1" parent="1">
          <mxGeometry width="50" height="50" relative="1" as="geometry">
            <mxPoint x="439" y="360" as="sourcePoint" />
            <mxPoint x="480" y="360" as="targetPoint" />
          </mxGeometry>
        </mxCell>
        <mxCell id="rFSqbBbNJpb0EMWmcOZD-113" value="" style="endArrow=none;dashed=1;html=1;rounded=0;entryX=0.083;entryY=0.003;entryDx=0;entryDy=0;entryPerimeter=0;exitX=0.084;exitY=1.015;exitDx=0;exitDy=0;exitPerimeter=0;strokeColor=default;shadow=0;" edge="1" parent="1">
          <mxGeometry width="50" height="50" relative="1" as="geometry">
            <mxPoint x="439" y="380" as="sourcePoint" />
            <mxPoint x="480" y="380" as="targetPoint" />
          </mxGeometry>
        </mxCell>
        <mxCell id="rFSqbBbNJpb0EMWmcOZD-115" value="" style="endArrow=none;dashed=1;html=1;rounded=0;entryX=0.083;entryY=0.003;entryDx=0;entryDy=0;entryPerimeter=0;exitX=0.084;exitY=1.015;exitDx=0;exitDy=0;exitPerimeter=0;strokeColor=default;shadow=0;" edge="1" parent="1">
          <mxGeometry width="50" height="50" relative="1" as="geometry">
            <mxPoint x="439" y="400" as="sourcePoint" />
            <mxPoint x="480" y="400" as="targetPoint" />
          </mxGeometry>
        </mxCell>
        <mxCell id="rFSqbBbNJpb0EMWmcOZD-117" value="" style="endArrow=none;dashed=1;html=1;rounded=0;entryX=0.083;entryY=0.003;entryDx=0;entryDy=0;entryPerimeter=0;exitX=0.084;exitY=1.015;exitDx=0;exitDy=0;exitPerimeter=0;strokeColor=default;shadow=0;" edge="1" parent="1">
          <mxGeometry width="50" height="50" relative="1" as="geometry">
            <mxPoint x="439" y="420" as="sourcePoint" />
            <mxPoint x="480" y="420" as="targetPoint" />
          </mxGeometry>
        </mxCell>
        <mxCell id="rFSqbBbNJpb0EMWmcOZD-119" value="" style="endArrow=none;dashed=1;html=1;rounded=0;entryX=0.083;entryY=0.003;entryDx=0;entryDy=0;entryPerimeter=0;exitX=0.084;exitY=1.015;exitDx=0;exitDy=0;exitPerimeter=0;strokeColor=default;shadow=0;" edge="1" parent="1">
          <mxGeometry width="50" height="50" relative="1" as="geometry">
            <mxPoint x="439" y="439" as="sourcePoint" />
            <mxPoint x="480" y="439" as="targetPoint" />
          </mxGeometry>
        </mxCell>
        <mxCell id="rFSqbBbNJpb0EMWmcOZD-132" value="" style="endArrow=none;dashed=1;html=1;rounded=0;entryX=0.083;entryY=0.003;entryDx=0;entryDy=0;entryPerimeter=0;exitX=0.084;exitY=1.015;exitDx=0;exitDy=0;exitPerimeter=0;strokeColor=default;shadow=0;" edge="1" parent="1">
          <mxGeometry width="50" height="50" relative="1" as="geometry">
            <mxPoint x="439" y="459" as="sourcePoint" />
            <mxPoint x="480" y="459" as="targetPoint" />
            <Array as="points">
              <mxPoint x="460" y="459" />
            </Array>
          </mxGeometry>
        </mxCell>
        <mxCell id="rFSqbBbNJpb0EMWmcOZD-134" value="" style="endArrow=none;dashed=1;html=1;rounded=0;entryX=0.083;entryY=0.003;entryDx=0;entryDy=0;entryPerimeter=0;exitX=0.084;exitY=1.015;exitDx=0;exitDy=0;exitPerimeter=0;strokeColor=default;shadow=0;" edge="1" parent="1">
          <mxGeometry width="50" height="50" relative="1" as="geometry">
            <mxPoint x="439" y="479" as="sourcePoint" />
            <mxPoint x="480" y="479" as="targetPoint" />
          </mxGeometry>
        </mxCell>
        <mxCell id="rFSqbBbNJpb0EMWmcOZD-136" value="" style="endArrow=none;dashed=1;html=1;rounded=0;entryX=0.083;entryY=0.003;entryDx=0;entryDy=0;entryPerimeter=0;exitX=0.084;exitY=1.015;exitDx=0;exitDy=0;exitPerimeter=0;strokeColor=default;shadow=0;" edge="1" parent="1">
          <mxGeometry width="50" height="50" relative="1" as="geometry">
            <mxPoint x="439" y="498" as="sourcePoint" />
            <mxPoint x="480" y="498" as="targetPoint" />
          </mxGeometry>
        </mxCell>
        <mxCell id="rFSqbBbNJpb0EMWmcOZD-138" value="" style="endArrow=none;dashed=1;html=1;rounded=0;entryX=0.083;entryY=0.003;entryDx=0;entryDy=0;entryPerimeter=0;exitX=0.084;exitY=1.015;exitDx=0;exitDy=0;exitPerimeter=0;strokeColor=default;shadow=0;" edge="1" parent="1">
          <mxGeometry width="50" height="50" relative="1" as="geometry">
            <mxPoint x="439" y="518" as="sourcePoint" />
            <mxPoint x="480" y="518" as="targetPoint" />
          </mxGeometry>
        </mxCell>
        <mxCell id="rFSqbBbNJpb0EMWmcOZD-140" value="" style="endArrow=none;dashed=1;html=1;rounded=0;entryX=0.083;entryY=0.003;entryDx=0;entryDy=0;entryPerimeter=0;exitX=0.084;exitY=1.015;exitDx=0;exitDy=0;exitPerimeter=0;strokeColor=default;shadow=0;" edge="1" parent="1">
          <mxGeometry width="50" height="50" relative="1" as="geometry">
            <mxPoint x="439" y="538" as="sourcePoint" />
            <mxPoint x="480" y="538" as="targetPoint" />
          </mxGeometry>
        </mxCell>
        <mxCell id="rFSqbBbNJpb0EMWmcOZD-76" value="" style="endArrow=none;html=1;rounded=0;entryX=0.001;entryY=0.081;entryDx=0;entryDy=0;entryPerimeter=0;strokeColor=default;shadow=0;" edge="1" parent="1">
          <mxGeometry width="50" height="50" relative="1" as="geometry">
            <mxPoint x="360" y="359" as="sourcePoint" />
            <mxPoint x="340.05000000000007" y="339.25" as="targetPoint" />
          </mxGeometry>
        </mxCell>
        <mxCell id="rFSqbBbNJpb0EMWmcOZD-35" value="" style="shape=cube;whiteSpace=wrap;html=1;boundedLbl=1;backgroundOutline=1;darkOpacity=0.05;darkOpacity2=0.1;strokeWidth=2;strokeColor=#36393d;shadow=1;fillColor=#f9f7ed;" vertex="1" parent="1">
          <mxGeometry x="340" y="320" width="50" height="240" as="geometry" />
        </mxCell>
        <mxCell id="rFSqbBbNJpb0EMWmcOZD-36" value="" style="endArrow=none;html=1;rounded=0;strokeColor=default;shadow=1;" edge="1" parent="1" source="rFSqbBbNJpb0EMWmcOZD-35">
          <mxGeometry width="50" height="50" relative="1" as="geometry">
            <mxPoint x="365" y="358.46153846153845" as="sourcePoint" />
            <mxPoint x="390" y="358.46153846153845" as="targetPoint" />
          </mxGeometry>
        </mxCell>
        <mxCell id="rFSqbBbNJpb0EMWmcOZD-51" value="" style="endArrow=none;html=1;rounded=0;entryX=0.25;entryY=0;entryDx=0;entryDy=0;strokeColor=default;shadow=0;" edge="1" parent="1">
          <mxGeometry width="50" height="50" relative="1" as="geometry">
            <mxPoint x="360" y="360" as="sourcePoint" />
            <mxPoint x="390" y="360.46153846153845" as="targetPoint" />
          </mxGeometry>
        </mxCell>
        <mxCell id="rFSqbBbNJpb0EMWmcOZD-77" value="" style="endArrow=none;html=1;rounded=0;entryX=0.25;entryY=0;entryDx=0;entryDy=0;strokeColor=default;shadow=0;" edge="1" parent="1">
          <mxGeometry width="50" height="50" relative="1" as="geometry">
            <mxPoint x="340" y="340" as="sourcePoint" />
            <mxPoint x="360" y="360.46153846153845" as="targetPoint" />
          </mxGeometry>
        </mxCell>
        <mxCell id="rFSqbBbNJpb0EMWmcOZD-78" value="" style="endArrow=none;html=1;rounded=0;entryX=0.25;entryY=0;entryDx=0;entryDy=0;strokeColor=default;shadow=0;" edge="1" parent="1">
          <mxGeometry width="50" height="50" relative="1" as="geometry">
            <mxPoint x="360" y="380" as="sourcePoint" />
            <mxPoint x="390" y="380.46153846153845" as="targetPoint" />
          </mxGeometry>
        </mxCell>
        <mxCell id="rFSqbBbNJpb0EMWmcOZD-79" value="" style="endArrow=none;html=1;rounded=0;entryX=0.25;entryY=0;entryDx=0;entryDy=0;strokeColor=default;shadow=0;" edge="1" parent="1">
          <mxGeometry width="50" height="50" relative="1" as="geometry">
            <mxPoint x="340" y="360" as="sourcePoint" />
            <mxPoint x="360" y="380.46153846153845" as="targetPoint" />
          </mxGeometry>
        </mxCell>
        <mxCell id="rFSqbBbNJpb0EMWmcOZD-80" value="" style="endArrow=none;html=1;rounded=0;entryX=0.25;entryY=0;entryDx=0;entryDy=0;strokeColor=default;shadow=0;" edge="1" parent="1">
          <mxGeometry width="50" height="50" relative="1" as="geometry">
            <mxPoint x="360" y="400" as="sourcePoint" />
            <mxPoint x="390" y="400.46153846153845" as="targetPoint" />
          </mxGeometry>
        </mxCell>
        <mxCell id="rFSqbBbNJpb0EMWmcOZD-81" value="" style="endArrow=none;html=1;rounded=0;entryX=0.25;entryY=0;entryDx=0;entryDy=0;strokeColor=default;shadow=0;" edge="1" parent="1">
          <mxGeometry width="50" height="50" relative="1" as="geometry">
            <mxPoint x="340" y="380" as="sourcePoint" />
            <mxPoint x="360" y="400.46153846153845" as="targetPoint" />
          </mxGeometry>
        </mxCell>
        <mxCell id="rFSqbBbNJpb0EMWmcOZD-82" value="" style="endArrow=none;html=1;rounded=0;entryX=0.25;entryY=0;entryDx=0;entryDy=0;strokeColor=default;shadow=0;" edge="1" parent="1">
          <mxGeometry width="50" height="50" relative="1" as="geometry">
            <mxPoint x="360" y="420" as="sourcePoint" />
            <mxPoint x="390" y="420.46153846153845" as="targetPoint" />
          </mxGeometry>
        </mxCell>
        <mxCell id="rFSqbBbNJpb0EMWmcOZD-83" value="" style="endArrow=none;html=1;rounded=0;entryX=0.25;entryY=0;entryDx=0;entryDy=0;strokeColor=default;shadow=0;" edge="1" parent="1">
          <mxGeometry width="50" height="50" relative="1" as="geometry">
            <mxPoint x="340" y="400" as="sourcePoint" />
            <mxPoint x="360" y="420.46153846153845" as="targetPoint" />
          </mxGeometry>
        </mxCell>
        <mxCell id="rFSqbBbNJpb0EMWmcOZD-84" value="" style="endArrow=none;html=1;rounded=0;entryX=0.25;entryY=0;entryDx=0;entryDy=0;strokeColor=default;shadow=0;" edge="1" parent="1">
          <mxGeometry width="50" height="50" relative="1" as="geometry">
            <mxPoint x="360" y="440" as="sourcePoint" />
            <mxPoint x="390" y="440.46153846153845" as="targetPoint" />
          </mxGeometry>
        </mxCell>
        <mxCell id="rFSqbBbNJpb0EMWmcOZD-85" value="" style="endArrow=none;html=1;rounded=0;entryX=0.25;entryY=0;entryDx=0;entryDy=0;strokeColor=default;shadow=0;" edge="1" parent="1">
          <mxGeometry width="50" height="50" relative="1" as="geometry">
            <mxPoint x="340" y="420" as="sourcePoint" />
            <mxPoint x="360" y="440.46153846153845" as="targetPoint" />
          </mxGeometry>
        </mxCell>
        <mxCell id="rFSqbBbNJpb0EMWmcOZD-86" value="" style="endArrow=none;html=1;rounded=0;entryX=0.25;entryY=0;entryDx=0;entryDy=0;strokeColor=default;shadow=0;" edge="1" parent="1">
          <mxGeometry width="50" height="50" relative="1" as="geometry">
            <mxPoint x="360" y="460" as="sourcePoint" />
            <mxPoint x="390" y="460.46153846153845" as="targetPoint" />
          </mxGeometry>
        </mxCell>
        <mxCell id="rFSqbBbNJpb0EMWmcOZD-87" value="" style="endArrow=none;html=1;rounded=0;entryX=0.25;entryY=0;entryDx=0;entryDy=0;strokeColor=default;shadow=0;" edge="1" parent="1">
          <mxGeometry width="50" height="50" relative="1" as="geometry">
            <mxPoint x="340" y="440" as="sourcePoint" />
            <mxPoint x="360" y="460.46153846153845" as="targetPoint" />
          </mxGeometry>
        </mxCell>
        <mxCell id="rFSqbBbNJpb0EMWmcOZD-88" value="" style="endArrow=none;html=1;rounded=0;entryX=0.25;entryY=0;entryDx=0;entryDy=0;strokeColor=default;shadow=0;" edge="1" parent="1">
          <mxGeometry width="50" height="50" relative="1" as="geometry">
            <mxPoint x="360" y="480" as="sourcePoint" />
            <mxPoint x="390" y="480.46153846153845" as="targetPoint" />
          </mxGeometry>
        </mxCell>
        <mxCell id="rFSqbBbNJpb0EMWmcOZD-89" value="" style="endArrow=none;html=1;rounded=0;entryX=0.25;entryY=0;entryDx=0;entryDy=0;strokeColor=default;shadow=0;" edge="1" parent="1">
          <mxGeometry width="50" height="50" relative="1" as="geometry">
            <mxPoint x="340" y="460" as="sourcePoint" />
            <mxPoint x="360" y="480.46153846153845" as="targetPoint" />
          </mxGeometry>
        </mxCell>
        <mxCell id="rFSqbBbNJpb0EMWmcOZD-90" value="" style="endArrow=none;html=1;rounded=0;entryX=0.25;entryY=0;entryDx=0;entryDy=0;strokeColor=default;shadow=0;" edge="1" parent="1">
          <mxGeometry width="50" height="50" relative="1" as="geometry">
            <mxPoint x="360" y="500" as="sourcePoint" />
            <mxPoint x="390" y="500.46153846153845" as="targetPoint" />
          </mxGeometry>
        </mxCell>
        <mxCell id="rFSqbBbNJpb0EMWmcOZD-91" value="" style="endArrow=none;html=1;rounded=0;entryX=0.25;entryY=0;entryDx=0;entryDy=0;strokeColor=default;shadow=0;" edge="1" parent="1">
          <mxGeometry width="50" height="50" relative="1" as="geometry">
            <mxPoint x="340" y="480" as="sourcePoint" />
            <mxPoint x="360" y="500.46153846153845" as="targetPoint" />
          </mxGeometry>
        </mxCell>
        <mxCell id="rFSqbBbNJpb0EMWmcOZD-92" value="" style="endArrow=none;html=1;rounded=0;entryX=0.25;entryY=0;entryDx=0;entryDy=0;strokeColor=default;shadow=0;" edge="1" parent="1">
          <mxGeometry width="50" height="50" relative="1" as="geometry">
            <mxPoint x="360" y="520" as="sourcePoint" />
            <mxPoint x="390" y="520.4615384615385" as="targetPoint" />
          </mxGeometry>
        </mxCell>
        <mxCell id="rFSqbBbNJpb0EMWmcOZD-93" value="" style="endArrow=none;html=1;rounded=0;entryX=0.25;entryY=0;entryDx=0;entryDy=0;strokeColor=default;shadow=0;" edge="1" parent="1">
          <mxGeometry width="50" height="50" relative="1" as="geometry">
            <mxPoint x="340" y="500" as="sourcePoint" />
            <mxPoint x="360" y="520.4615384615385" as="targetPoint" />
          </mxGeometry>
        </mxCell>
        <mxCell id="rFSqbBbNJpb0EMWmcOZD-94" value="" style="endArrow=none;html=1;rounded=0;entryX=0.25;entryY=0;entryDx=0;entryDy=0;strokeColor=default;shadow=0;" edge="1" parent="1">
          <mxGeometry width="50" height="50" relative="1" as="geometry">
            <mxPoint x="360" y="540" as="sourcePoint" />
            <mxPoint x="390" y="540.4615384615385" as="targetPoint" />
          </mxGeometry>
        </mxCell>
        <mxCell id="rFSqbBbNJpb0EMWmcOZD-95" value="" style="endArrow=none;html=1;rounded=0;entryX=0.25;entryY=0;entryDx=0;entryDy=0;strokeColor=default;shadow=0;" edge="1" parent="1">
          <mxGeometry width="50" height="50" relative="1" as="geometry">
            <mxPoint x="340" y="520" as="sourcePoint" />
            <mxPoint x="360" y="540.4615384615385" as="targetPoint" />
          </mxGeometry>
        </mxCell>
        <mxCell id="rFSqbBbNJpb0EMWmcOZD-476" value="" style="group;shadow=1;" vertex="1" connectable="0" parent="1">
          <mxGeometry x="475" y="330" width="73" height="228" as="geometry" />
        </mxCell>
        <mxCell id="rFSqbBbNJpb0EMWmcOZD-477" value="" style="ellipse;whiteSpace=wrap;html=1;aspect=fixed;shadow=1;" vertex="1" parent="rFSqbBbNJpb0EMWmcOZD-476">
          <mxGeometry x="43" y="198" width="30" height="30" as="geometry" />
        </mxCell>
        <mxCell id="rFSqbBbNJpb0EMWmcOZD-479" value="" style="ellipse;whiteSpace=wrap;html=1;aspect=fixed;fillColor=#dae8fc;strokeColor=#6c8ebf;gradientColor=#7ea6e0;shadow=1;" vertex="1" parent="rFSqbBbNJpb0EMWmcOZD-476">
          <mxGeometry x="43" width="30" height="30" as="geometry" />
        </mxCell>
        <mxCell id="rFSqbBbNJpb0EMWmcOZD-480" value="" style="ellipse;whiteSpace=wrap;html=1;aspect=fixed;shadow=1;" vertex="1" parent="rFSqbBbNJpb0EMWmcOZD-476">
          <mxGeometry x="43" y="40" width="30" height="30" as="geometry" />
        </mxCell>
        <mxCell id="rFSqbBbNJpb0EMWmcOZD-481" value="" style="ellipse;whiteSpace=wrap;html=1;aspect=fixed;shadow=1;" vertex="1" parent="rFSqbBbNJpb0EMWmcOZD-476">
          <mxGeometry x="43" y="80" width="30" height="30" as="geometry" />
        </mxCell>
        <mxCell id="rFSqbBbNJpb0EMWmcOZD-482" value="" style="ellipse;whiteSpace=wrap;html=1;aspect=fixed;shadow=1;" vertex="1" parent="rFSqbBbNJpb0EMWmcOZD-476">
          <mxGeometry x="43" y="120" width="30" height="30" as="geometry" />
        </mxCell>
        <mxCell id="rFSqbBbNJpb0EMWmcOZD-483" value="" style="endArrow=classic;html=1;rounded=0;entryX=0;entryY=0.5;entryDx=0;entryDy=0;exitX=0.064;exitY=-0.052;exitDx=0;exitDy=0;exitPerimeter=0;shadow=1;" edge="1" parent="rFSqbBbNJpb0EMWmcOZD-476">
          <mxGeometry width="50" height="50" relative="1" as="geometry">
            <mxPoint x="2.0799999999999272" y="16.72000000000014" as="sourcePoint" />
            <mxPoint x="43.000000000005684" y="17" as="targetPoint" />
          </mxGeometry>
        </mxCell>
        <mxCell id="rFSqbBbNJpb0EMWmcOZD-484" value="" style="endArrow=classic;html=1;rounded=0;entryX=0;entryY=0.5;entryDx=0;entryDy=0;exitX=0.064;exitY=-0.052;exitDx=0;exitDy=0;exitPerimeter=0;shadow=1;" edge="1" parent="rFSqbBbNJpb0EMWmcOZD-476">
          <mxGeometry width="50" height="50" relative="1" as="geometry">
            <mxPoint x="2.0799999999999272" y="56.72000000000014" as="sourcePoint" />
            <mxPoint x="43.000000000005684" y="57" as="targetPoint" />
          </mxGeometry>
        </mxCell>
        <mxCell id="rFSqbBbNJpb0EMWmcOZD-485" value="" style="endArrow=classic;html=1;rounded=0;entryX=0;entryY=0.5;entryDx=0;entryDy=0;exitX=0.064;exitY=-0.052;exitDx=0;exitDy=0;exitPerimeter=0;shadow=1;" edge="1" parent="rFSqbBbNJpb0EMWmcOZD-476">
          <mxGeometry width="50" height="50" relative="1" as="geometry">
            <mxPoint x="2.0799999999999272" y="96.72000000000014" as="sourcePoint" />
            <mxPoint x="43.000000000005684" y="97" as="targetPoint" />
          </mxGeometry>
        </mxCell>
        <mxCell id="rFSqbBbNJpb0EMWmcOZD-486" value="" style="endArrow=classic;html=1;rounded=0;entryX=0;entryY=0.5;entryDx=0;entryDy=0;exitX=0.064;exitY=-0.052;exitDx=0;exitDy=0;exitPerimeter=0;shadow=1;" edge="1" parent="rFSqbBbNJpb0EMWmcOZD-476">
          <mxGeometry width="50" height="50" relative="1" as="geometry">
            <mxPoint x="2.0799999999999272" y="136.72000000000014" as="sourcePoint" />
            <mxPoint x="43.000000000005684" y="137" as="targetPoint" />
          </mxGeometry>
        </mxCell>
        <mxCell id="rFSqbBbNJpb0EMWmcOZD-487" value="" style="endArrow=classic;html=1;rounded=0;entryX=0;entryY=0.5;entryDx=0;entryDy=0;exitX=0.064;exitY=-0.052;exitDx=0;exitDy=0;exitPerimeter=0;shadow=1;" edge="1" parent="rFSqbBbNJpb0EMWmcOZD-476">
          <mxGeometry width="50" height="50" relative="1" as="geometry">
            <mxPoint x="2.0799999999999272" y="216.72000000000014" as="sourcePoint" />
            <mxPoint x="43.000000000005684" y="217" as="targetPoint" />
          </mxGeometry>
        </mxCell>
        <mxCell id="rFSqbBbNJpb0EMWmcOZD-488" value="" style="endArrow=classic;html=1;rounded=0;entryX=0;entryY=0.5;entryDx=0;entryDy=0;exitX=0.064;exitY=-0.052;exitDx=0;exitDy=0;exitPerimeter=0;shadow=1;" edge="1" parent="rFSqbBbNJpb0EMWmcOZD-476" target="rFSqbBbNJpb0EMWmcOZD-480">
          <mxGeometry width="50" height="50" relative="1" as="geometry">
            <mxPoint x="2.0799999999999272" y="16.72000000000014" as="sourcePoint" />
            <mxPoint x="43.000000000005684" y="17" as="targetPoint" />
          </mxGeometry>
        </mxCell>
        <mxCell id="rFSqbBbNJpb0EMWmcOZD-489" value="" style="endArrow=classic;html=1;rounded=0;entryX=0;entryY=0.5;entryDx=0;entryDy=0;exitX=0.064;exitY=-0.052;exitDx=0;exitDy=0;exitPerimeter=0;shadow=1;" edge="1" parent="rFSqbBbNJpb0EMWmcOZD-476">
          <mxGeometry width="50" height="50" relative="1" as="geometry">
            <mxPoint x="2.0799999999999272" y="56.72000000000014" as="sourcePoint" />
            <mxPoint x="43" y="95" as="targetPoint" />
          </mxGeometry>
        </mxCell>
        <mxCell id="rFSqbBbNJpb0EMWmcOZD-490" value="" style="endArrow=classic;html=1;rounded=0;entryX=0;entryY=0.5;entryDx=0;entryDy=0;exitX=0.064;exitY=-0.052;exitDx=0;exitDy=0;exitPerimeter=0;shadow=1;" edge="1" parent="rFSqbBbNJpb0EMWmcOZD-476">
          <mxGeometry width="50" height="50" relative="1" as="geometry">
            <mxPoint x="2.0799999999999272" y="96.72000000000014" as="sourcePoint" />
            <mxPoint x="43" y="135" as="targetPoint" />
          </mxGeometry>
        </mxCell>
        <mxCell id="rFSqbBbNJpb0EMWmcOZD-491" value="" style="endArrow=classic;html=1;rounded=0;entryX=0.012;entryY=0.689;entryDx=0;entryDy=0;exitX=0.064;exitY=-0.052;exitDx=0;exitDy=0;exitPerimeter=0;entryPerimeter=0;shadow=1;" edge="1" parent="rFSqbBbNJpb0EMWmcOZD-476" target="rFSqbBbNJpb0EMWmcOZD-477">
          <mxGeometry width="50" height="50" relative="1" as="geometry">
            <mxPoint x="2.0799999999999272" y="136.72000000000014" as="sourcePoint" />
            <mxPoint x="43" y="175" as="targetPoint" />
          </mxGeometry>
        </mxCell>
        <mxCell id="rFSqbBbNJpb0EMWmcOZD-492" value="" style="endArrow=classic;html=1;rounded=0;entryX=0;entryY=0.5;entryDx=0;entryDy=0;exitX=0.064;exitY=-0.052;exitDx=0;exitDy=0;exitPerimeter=0;shadow=1;" edge="1" parent="rFSqbBbNJpb0EMWmcOZD-476" target="rFSqbBbNJpb0EMWmcOZD-479">
          <mxGeometry width="50" height="50" relative="1" as="geometry">
            <mxPoint x="2.0799999999999272" y="56.72000000000014" as="sourcePoint" />
            <mxPoint x="43.000000000005684" y="57" as="targetPoint" />
          </mxGeometry>
        </mxCell>
        <mxCell id="rFSqbBbNJpb0EMWmcOZD-493" value="" style="endArrow=classic;html=1;rounded=0;entryX=0;entryY=0.5;entryDx=0;entryDy=0;exitX=0.064;exitY=-0.052;exitDx=0;exitDy=0;exitPerimeter=0;shadow=1;" edge="1" parent="rFSqbBbNJpb0EMWmcOZD-476">
          <mxGeometry width="50" height="50" relative="1" as="geometry">
            <mxPoint x="2.0799999999999272" y="96.72000000000014" as="sourcePoint" />
            <mxPoint x="43" y="55" as="targetPoint" />
          </mxGeometry>
        </mxCell>
        <mxCell id="rFSqbBbNJpb0EMWmcOZD-494" value="" style="endArrow=classic;html=1;rounded=0;entryX=0;entryY=0.5;entryDx=0;entryDy=0;exitX=0.064;exitY=-0.052;exitDx=0;exitDy=0;exitPerimeter=0;shadow=1;" edge="1" parent="rFSqbBbNJpb0EMWmcOZD-476">
          <mxGeometry width="50" height="50" relative="1" as="geometry">
            <mxPoint x="2.0799999999999272" y="136.72000000000014" as="sourcePoint" />
            <mxPoint x="43" y="95" as="targetPoint" />
          </mxGeometry>
        </mxCell>
        <mxCell id="rFSqbBbNJpb0EMWmcOZD-495" value="" style="endArrow=classic;html=1;rounded=0;entryX=0;entryY=0.5;entryDx=0;entryDy=0;shadow=1;" edge="1" parent="rFSqbBbNJpb0EMWmcOZD-476">
          <mxGeometry width="50" height="50" relative="1" as="geometry">
            <mxPoint x="2" y="218" as="sourcePoint" />
            <mxPoint x="43" y="135" as="targetPoint" />
          </mxGeometry>
        </mxCell>
        <mxCell id="rFSqbBbNJpb0EMWmcOZD-496" value="" style="endArrow=classic;html=1;rounded=0;entryX=0;entryY=0.5;entryDx=0;entryDy=0;shadow=1;" edge="1" parent="rFSqbBbNJpb0EMWmcOZD-476" target="rFSqbBbNJpb0EMWmcOZD-479">
          <mxGeometry width="50" height="50" relative="1" as="geometry">
            <mxPoint x="2" y="218" as="sourcePoint" />
            <mxPoint x="43" y="135" as="targetPoint" />
          </mxGeometry>
        </mxCell>
        <mxCell id="rFSqbBbNJpb0EMWmcOZD-497" value="" style="endArrow=classic;html=1;rounded=0;entryX=-0.054;entryY=0.64;entryDx=0;entryDy=0;entryPerimeter=0;shadow=1;" edge="1" parent="rFSqbBbNJpb0EMWmcOZD-476" target="rFSqbBbNJpb0EMWmcOZD-480">
          <mxGeometry width="50" height="50" relative="1" as="geometry">
            <mxPoint x="3" y="218" as="sourcePoint" />
            <mxPoint x="53" y="25" as="targetPoint" />
          </mxGeometry>
        </mxCell>
        <mxCell id="rFSqbBbNJpb0EMWmcOZD-498" value="" style="endArrow=classic;html=1;rounded=0;entryX=0;entryY=0.5;entryDx=0;entryDy=0;shadow=1;" edge="1" parent="rFSqbBbNJpb0EMWmcOZD-476" target="rFSqbBbNJpb0EMWmcOZD-481">
          <mxGeometry width="50" height="50" relative="1" as="geometry">
            <mxPoint x="3" y="218" as="sourcePoint" />
            <mxPoint x="41" y="59" as="targetPoint" />
          </mxGeometry>
        </mxCell>
        <mxCell id="rFSqbBbNJpb0EMWmcOZD-499" value="" style="endArrow=classic;html=1;rounded=0;entryX=0;entryY=0.5;entryDx=0;entryDy=0;shadow=1;" edge="1" parent="rFSqbBbNJpb0EMWmcOZD-476">
          <mxGeometry width="50" height="50" relative="1" as="geometry">
            <mxPoint x="3" y="218" as="sourcePoint" />
            <mxPoint x="43" y="95" as="targetPoint" />
          </mxGeometry>
        </mxCell>
        <mxCell id="rFSqbBbNJpb0EMWmcOZD-500" value="" style="endArrow=classic;html=1;rounded=0;entryX=-0.016;entryY=0.598;entryDx=0;entryDy=0;exitX=0.064;exitY=-0.052;exitDx=0;exitDy=0;exitPerimeter=0;entryPerimeter=0;shadow=1;" edge="1" parent="rFSqbBbNJpb0EMWmcOZD-476" target="rFSqbBbNJpb0EMWmcOZD-480">
          <mxGeometry width="50" height="50" relative="1" as="geometry">
            <mxPoint x="2.0799999999999272" y="136.72000000000014" as="sourcePoint" />
            <mxPoint x="43" y="95" as="targetPoint" />
          </mxGeometry>
        </mxCell>
        <mxCell id="rFSqbBbNJpb0EMWmcOZD-501" value="" style="endArrow=classic;html=1;rounded=0;exitX=0.603;exitY=-0.03;exitDx=0;exitDy=0;exitPerimeter=0;shadow=1;" edge="1" parent="rFSqbBbNJpb0EMWmcOZD-476">
          <mxGeometry width="50" height="50" relative="1" as="geometry">
            <mxPoint x="1.2000000000002728" y="136.69000000000005" as="sourcePoint" />
            <mxPoint x="43" y="18" as="targetPoint" />
          </mxGeometry>
        </mxCell>
        <mxCell id="rFSqbBbNJpb0EMWmcOZD-502" value="" style="endArrow=classic;html=1;rounded=0;entryX=0.012;entryY=0.689;entryDx=0;entryDy=0;exitX=0.083;exitY=-0.059;exitDx=0;exitDy=0;exitPerimeter=0;entryPerimeter=0;shadow=1;" edge="1" parent="rFSqbBbNJpb0EMWmcOZD-476">
          <mxGeometry width="50" height="50" relative="1" as="geometry">
            <mxPoint x="2.3600000000001273" y="17.089999999999918" as="sourcePoint" />
            <mxPoint x="43" y="219" as="targetPoint" />
          </mxGeometry>
        </mxCell>
        <mxCell id="rFSqbBbNJpb0EMWmcOZD-503" value="" style="endArrow=classic;html=1;rounded=0;entryX=-0.084;entryY=0.571;entryDx=0;entryDy=0;entryPerimeter=0;shadow=1;" edge="1" parent="rFSqbBbNJpb0EMWmcOZD-476" target="rFSqbBbNJpb0EMWmcOZD-477">
          <mxGeometry width="50" height="50" relative="1" as="geometry">
            <mxPoint x="3" y="58" as="sourcePoint" />
            <mxPoint x="53" y="229" as="targetPoint" />
          </mxGeometry>
        </mxCell>
        <mxCell id="rFSqbBbNJpb0EMWmcOZD-504" value="" style="group;shadow=1;" vertex="1" connectable="0" parent="1">
          <mxGeometry x="546" y="330" width="73" height="228" as="geometry" />
        </mxCell>
        <mxCell id="rFSqbBbNJpb0EMWmcOZD-505" value="" style="ellipse;whiteSpace=wrap;html=1;aspect=fixed;shadow=1;" vertex="1" parent="rFSqbBbNJpb0EMWmcOZD-504">
          <mxGeometry x="43" y="198" width="30" height="30" as="geometry" />
        </mxCell>
        <mxCell id="rFSqbBbNJpb0EMWmcOZD-506" value="" style="group;shadow=1;" vertex="1" connectable="0" parent="rFSqbBbNJpb0EMWmcOZD-504">
          <mxGeometry width="73" height="219" as="geometry" />
        </mxCell>
        <mxCell id="rFSqbBbNJpb0EMWmcOZD-507" value="" style="ellipse;whiteSpace=wrap;html=1;aspect=fixed;shadow=1;" vertex="1" parent="rFSqbBbNJpb0EMWmcOZD-506">
          <mxGeometry x="43" width="30" height="30" as="geometry" />
        </mxCell>
        <mxCell id="rFSqbBbNJpb0EMWmcOZD-508" value="" style="ellipse;whiteSpace=wrap;html=1;aspect=fixed;shadow=1;" vertex="1" parent="rFSqbBbNJpb0EMWmcOZD-506">
          <mxGeometry x="43" y="40" width="30" height="30" as="geometry" />
        </mxCell>
        <mxCell id="rFSqbBbNJpb0EMWmcOZD-509" value="" style="ellipse;whiteSpace=wrap;html=1;aspect=fixed;shadow=1;" vertex="1" parent="rFSqbBbNJpb0EMWmcOZD-506">
          <mxGeometry x="43" y="80" width="30" height="30" as="geometry" />
        </mxCell>
        <mxCell id="rFSqbBbNJpb0EMWmcOZD-510" value="" style="ellipse;whiteSpace=wrap;html=1;aspect=fixed;shadow=1;" vertex="1" parent="rFSqbBbNJpb0EMWmcOZD-506">
          <mxGeometry x="43" y="120" width="30" height="30" as="geometry" />
        </mxCell>
        <mxCell id="rFSqbBbNJpb0EMWmcOZD-511" value="" style="endArrow=classic;html=1;rounded=0;entryX=0;entryY=0.5;entryDx=0;entryDy=0;exitX=0.064;exitY=-0.052;exitDx=0;exitDy=0;exitPerimeter=0;shadow=1;" edge="1" parent="rFSqbBbNJpb0EMWmcOZD-506">
          <mxGeometry width="50" height="50" relative="1" as="geometry">
            <mxPoint x="2.0799999999999272" y="16.72000000000014" as="sourcePoint" />
            <mxPoint x="43.000000000005684" y="17" as="targetPoint" />
          </mxGeometry>
        </mxCell>
        <mxCell id="rFSqbBbNJpb0EMWmcOZD-512" value="" style="endArrow=classic;html=1;rounded=0;entryX=0;entryY=0.5;entryDx=0;entryDy=0;exitX=0.064;exitY=-0.052;exitDx=0;exitDy=0;exitPerimeter=0;shadow=1;" edge="1" parent="rFSqbBbNJpb0EMWmcOZD-506">
          <mxGeometry width="50" height="50" relative="1" as="geometry">
            <mxPoint x="2.0799999999999272" y="56.72000000000014" as="sourcePoint" />
            <mxPoint x="43.000000000005684" y="57" as="targetPoint" />
          </mxGeometry>
        </mxCell>
        <mxCell id="rFSqbBbNJpb0EMWmcOZD-513" value="" style="endArrow=classic;html=1;rounded=0;entryX=0;entryY=0.5;entryDx=0;entryDy=0;exitX=0.064;exitY=-0.052;exitDx=0;exitDy=0;exitPerimeter=0;shadow=1;" edge="1" parent="rFSqbBbNJpb0EMWmcOZD-506">
          <mxGeometry width="50" height="50" relative="1" as="geometry">
            <mxPoint x="2.0799999999999272" y="96.72000000000014" as="sourcePoint" />
            <mxPoint x="43.000000000005684" y="97" as="targetPoint" />
          </mxGeometry>
        </mxCell>
        <mxCell id="rFSqbBbNJpb0EMWmcOZD-514" value="" style="endArrow=classic;html=1;rounded=0;entryX=0;entryY=0.5;entryDx=0;entryDy=0;exitX=0.064;exitY=-0.052;exitDx=0;exitDy=0;exitPerimeter=0;shadow=1;" edge="1" parent="rFSqbBbNJpb0EMWmcOZD-506">
          <mxGeometry width="50" height="50" relative="1" as="geometry">
            <mxPoint x="2.0799999999999272" y="136.72000000000014" as="sourcePoint" />
            <mxPoint x="43.000000000005684" y="137" as="targetPoint" />
          </mxGeometry>
        </mxCell>
        <mxCell id="rFSqbBbNJpb0EMWmcOZD-515" value="" style="endArrow=classic;html=1;rounded=0;entryX=0;entryY=0.5;entryDx=0;entryDy=0;exitX=0.064;exitY=-0.052;exitDx=0;exitDy=0;exitPerimeter=0;shadow=1;" edge="1" parent="rFSqbBbNJpb0EMWmcOZD-506">
          <mxGeometry width="50" height="50" relative="1" as="geometry">
            <mxPoint x="2.0799999999999272" y="216.72000000000014" as="sourcePoint" />
            <mxPoint x="43.000000000005684" y="217" as="targetPoint" />
          </mxGeometry>
        </mxCell>
        <mxCell id="rFSqbBbNJpb0EMWmcOZD-516" value="" style="endArrow=classic;html=1;rounded=0;entryX=0;entryY=0.5;entryDx=0;entryDy=0;exitX=0.064;exitY=-0.052;exitDx=0;exitDy=0;exitPerimeter=0;shadow=1;" edge="1" parent="rFSqbBbNJpb0EMWmcOZD-506" target="rFSqbBbNJpb0EMWmcOZD-508">
          <mxGeometry width="50" height="50" relative="1" as="geometry">
            <mxPoint x="2.0799999999999272" y="16.72000000000014" as="sourcePoint" />
            <mxPoint x="43.000000000005684" y="17" as="targetPoint" />
          </mxGeometry>
        </mxCell>
        <mxCell id="rFSqbBbNJpb0EMWmcOZD-517" value="" style="endArrow=classic;html=1;rounded=0;entryX=0;entryY=0.5;entryDx=0;entryDy=0;exitX=0.064;exitY=-0.052;exitDx=0;exitDy=0;exitPerimeter=0;shadow=1;" edge="1" parent="rFSqbBbNJpb0EMWmcOZD-506">
          <mxGeometry width="50" height="50" relative="1" as="geometry">
            <mxPoint x="2.0799999999999272" y="56.72000000000014" as="sourcePoint" />
            <mxPoint x="43" y="95" as="targetPoint" />
          </mxGeometry>
        </mxCell>
        <mxCell id="rFSqbBbNJpb0EMWmcOZD-518" value="" style="endArrow=classic;html=1;rounded=0;entryX=0;entryY=0.5;entryDx=0;entryDy=0;exitX=0.064;exitY=-0.052;exitDx=0;exitDy=0;exitPerimeter=0;shadow=1;" edge="1" parent="rFSqbBbNJpb0EMWmcOZD-506">
          <mxGeometry width="50" height="50" relative="1" as="geometry">
            <mxPoint x="2.0799999999999272" y="96.72000000000014" as="sourcePoint" />
            <mxPoint x="43" y="135" as="targetPoint" />
          </mxGeometry>
        </mxCell>
        <mxCell id="rFSqbBbNJpb0EMWmcOZD-519" value="" style="endArrow=classic;html=1;rounded=0;entryX=0.012;entryY=0.689;entryDx=0;entryDy=0;exitX=0.064;exitY=-0.052;exitDx=0;exitDy=0;exitPerimeter=0;entryPerimeter=0;shadow=1;" edge="1" parent="rFSqbBbNJpb0EMWmcOZD-506" target="rFSqbBbNJpb0EMWmcOZD-505">
          <mxGeometry width="50" height="50" relative="1" as="geometry">
            <mxPoint x="2.0799999999999272" y="136.72000000000014" as="sourcePoint" />
            <mxPoint x="43" y="175" as="targetPoint" />
          </mxGeometry>
        </mxCell>
        <mxCell id="rFSqbBbNJpb0EMWmcOZD-520" value="" style="endArrow=classic;html=1;rounded=0;entryX=0;entryY=0.5;entryDx=0;entryDy=0;exitX=0.064;exitY=-0.052;exitDx=0;exitDy=0;exitPerimeter=0;shadow=1;" edge="1" parent="rFSqbBbNJpb0EMWmcOZD-506" target="rFSqbBbNJpb0EMWmcOZD-507">
          <mxGeometry width="50" height="50" relative="1" as="geometry">
            <mxPoint x="2.0799999999999272" y="56.72000000000014" as="sourcePoint" />
            <mxPoint x="43.000000000005684" y="57" as="targetPoint" />
          </mxGeometry>
        </mxCell>
        <mxCell id="rFSqbBbNJpb0EMWmcOZD-521" value="" style="endArrow=classic;html=1;rounded=0;entryX=0;entryY=0.5;entryDx=0;entryDy=0;exitX=0.064;exitY=-0.052;exitDx=0;exitDy=0;exitPerimeter=0;shadow=1;" edge="1" parent="rFSqbBbNJpb0EMWmcOZD-506">
          <mxGeometry width="50" height="50" relative="1" as="geometry">
            <mxPoint x="2.0799999999999272" y="96.72000000000014" as="sourcePoint" />
            <mxPoint x="43" y="55" as="targetPoint" />
          </mxGeometry>
        </mxCell>
        <mxCell id="rFSqbBbNJpb0EMWmcOZD-522" value="" style="endArrow=classic;html=1;rounded=0;entryX=0;entryY=0.5;entryDx=0;entryDy=0;exitX=0.064;exitY=-0.052;exitDx=0;exitDy=0;exitPerimeter=0;shadow=1;" edge="1" parent="rFSqbBbNJpb0EMWmcOZD-506">
          <mxGeometry width="50" height="50" relative="1" as="geometry">
            <mxPoint x="2.0799999999999272" y="136.72000000000014" as="sourcePoint" />
            <mxPoint x="43" y="95" as="targetPoint" />
          </mxGeometry>
        </mxCell>
        <mxCell id="rFSqbBbNJpb0EMWmcOZD-523" value="" style="endArrow=classic;html=1;rounded=0;entryX=0;entryY=0.5;entryDx=0;entryDy=0;shadow=1;" edge="1" parent="rFSqbBbNJpb0EMWmcOZD-506">
          <mxGeometry width="50" height="50" relative="1" as="geometry">
            <mxPoint x="2" y="218" as="sourcePoint" />
            <mxPoint x="43" y="135" as="targetPoint" />
          </mxGeometry>
        </mxCell>
        <mxCell id="rFSqbBbNJpb0EMWmcOZD-524" value="" style="endArrow=classic;html=1;rounded=0;entryX=0;entryY=0.5;entryDx=0;entryDy=0;shadow=1;" edge="1" parent="rFSqbBbNJpb0EMWmcOZD-506" target="rFSqbBbNJpb0EMWmcOZD-507">
          <mxGeometry width="50" height="50" relative="1" as="geometry">
            <mxPoint x="2" y="218" as="sourcePoint" />
            <mxPoint x="43" y="135" as="targetPoint" />
          </mxGeometry>
        </mxCell>
        <mxCell id="rFSqbBbNJpb0EMWmcOZD-525" value="" style="endArrow=classic;html=1;rounded=0;entryX=-0.054;entryY=0.64;entryDx=0;entryDy=0;entryPerimeter=0;shadow=1;" edge="1" parent="rFSqbBbNJpb0EMWmcOZD-506" target="rFSqbBbNJpb0EMWmcOZD-508">
          <mxGeometry width="50" height="50" relative="1" as="geometry">
            <mxPoint x="3" y="218" as="sourcePoint" />
            <mxPoint x="53" y="25" as="targetPoint" />
          </mxGeometry>
        </mxCell>
        <mxCell id="rFSqbBbNJpb0EMWmcOZD-526" value="" style="endArrow=classic;html=1;rounded=0;entryX=0;entryY=0.5;entryDx=0;entryDy=0;shadow=1;" edge="1" parent="rFSqbBbNJpb0EMWmcOZD-506" target="rFSqbBbNJpb0EMWmcOZD-509">
          <mxGeometry width="50" height="50" relative="1" as="geometry">
            <mxPoint x="3" y="218" as="sourcePoint" />
            <mxPoint x="41" y="59" as="targetPoint" />
          </mxGeometry>
        </mxCell>
        <mxCell id="rFSqbBbNJpb0EMWmcOZD-527" value="" style="endArrow=classic;html=1;rounded=0;entryX=0;entryY=0.5;entryDx=0;entryDy=0;shadow=1;" edge="1" parent="rFSqbBbNJpb0EMWmcOZD-506">
          <mxGeometry width="50" height="50" relative="1" as="geometry">
            <mxPoint x="3" y="218" as="sourcePoint" />
            <mxPoint x="43" y="95" as="targetPoint" />
          </mxGeometry>
        </mxCell>
        <mxCell id="rFSqbBbNJpb0EMWmcOZD-528" value="" style="endArrow=classic;html=1;rounded=0;entryX=-0.016;entryY=0.598;entryDx=0;entryDy=0;exitX=0.064;exitY=-0.052;exitDx=0;exitDy=0;exitPerimeter=0;entryPerimeter=0;shadow=1;" edge="1" parent="rFSqbBbNJpb0EMWmcOZD-506" target="rFSqbBbNJpb0EMWmcOZD-508">
          <mxGeometry width="50" height="50" relative="1" as="geometry">
            <mxPoint x="2.0799999999999272" y="136.72000000000014" as="sourcePoint" />
            <mxPoint x="43" y="95" as="targetPoint" />
          </mxGeometry>
        </mxCell>
        <mxCell id="rFSqbBbNJpb0EMWmcOZD-529" value="" style="endArrow=classic;html=1;rounded=0;exitX=0.603;exitY=-0.03;exitDx=0;exitDy=0;exitPerimeter=0;shadow=1;" edge="1" parent="rFSqbBbNJpb0EMWmcOZD-506">
          <mxGeometry width="50" height="50" relative="1" as="geometry">
            <mxPoint x="1.2000000000002728" y="136.69000000000005" as="sourcePoint" />
            <mxPoint x="43" y="18" as="targetPoint" />
          </mxGeometry>
        </mxCell>
        <mxCell id="rFSqbBbNJpb0EMWmcOZD-530" value="" style="endArrow=classic;html=1;rounded=0;entryX=0.012;entryY=0.689;entryDx=0;entryDy=0;exitX=0.083;exitY=-0.059;exitDx=0;exitDy=0;exitPerimeter=0;entryPerimeter=0;shadow=1;" edge="1" parent="rFSqbBbNJpb0EMWmcOZD-506">
          <mxGeometry width="50" height="50" relative="1" as="geometry">
            <mxPoint x="2.3600000000001273" y="17.089999999999918" as="sourcePoint" />
            <mxPoint x="43" y="219" as="targetPoint" />
          </mxGeometry>
        </mxCell>
        <mxCell id="rFSqbBbNJpb0EMWmcOZD-531" value="" style="endArrow=classic;html=1;rounded=0;entryX=-0.084;entryY=0.571;entryDx=0;entryDy=0;entryPerimeter=0;shadow=1;" edge="1" parent="rFSqbBbNJpb0EMWmcOZD-506" target="rFSqbBbNJpb0EMWmcOZD-505">
          <mxGeometry width="50" height="50" relative="1" as="geometry">
            <mxPoint x="3" y="58" as="sourcePoint" />
            <mxPoint x="53" y="229" as="targetPoint" />
          </mxGeometry>
        </mxCell>
        <mxCell id="rFSqbBbNJpb0EMWmcOZD-539" value="" style="ellipse;whiteSpace=wrap;html=1;aspect=fixed;shadow=1;" vertex="1" parent="rFSqbBbNJpb0EMWmcOZD-506">
          <mxGeometry x="57" y="157" width="3" height="3" as="geometry" />
        </mxCell>
        <mxCell id="rFSqbBbNJpb0EMWmcOZD-359" value="" style="ellipse;whiteSpace=wrap;html=1;aspect=fixed;fillColor=#f8cecc;strokeColor=#b85450;gradientColor=#ea6b66;shadow=1;" vertex="1" parent="1">
          <mxGeometry x="670" y="410" width="30" height="30" as="geometry" />
        </mxCell>
        <mxCell id="rFSqbBbNJpb0EMWmcOZD-534" value="" style="endArrow=classic;html=1;rounded=0;entryX=0;entryY=0.5;entryDx=0;entryDy=0;strokeColor=default;shadow=1;" edge="1" parent="1" target="rFSqbBbNJpb0EMWmcOZD-359">
          <mxGeometry width="50" height="50" relative="1" as="geometry">
            <mxPoint x="619" y="346" as="sourcePoint" />
            <mxPoint x="664" y="346" as="targetPoint" />
          </mxGeometry>
        </mxCell>
        <mxCell id="rFSqbBbNJpb0EMWmcOZD-535" value="" style="endArrow=classic;html=1;rounded=0;entryX=0;entryY=0.5;entryDx=0;entryDy=0;strokeColor=default;shadow=1;" edge="1" parent="1" target="rFSqbBbNJpb0EMWmcOZD-359">
          <mxGeometry width="50" height="50" relative="1" as="geometry">
            <mxPoint x="619" y="386" as="sourcePoint" />
            <mxPoint x="670" y="465" as="targetPoint" />
          </mxGeometry>
        </mxCell>
        <mxCell id="rFSqbBbNJpb0EMWmcOZD-536" value="" style="endArrow=classic;html=1;rounded=0;strokeColor=default;entryX=0;entryY=0.5;entryDx=0;entryDy=0;shadow=1;" edge="1" parent="1" target="rFSqbBbNJpb0EMWmcOZD-359">
          <mxGeometry width="50" height="50" relative="1" as="geometry">
            <mxPoint x="619" y="426" as="sourcePoint" />
            <mxPoint x="670" y="505" as="targetPoint" />
          </mxGeometry>
        </mxCell>
        <mxCell id="rFSqbBbNJpb0EMWmcOZD-537" value="" style="endArrow=classic;html=1;rounded=0;entryX=0;entryY=0.5;entryDx=0;entryDy=0;strokeColor=default;shadow=1;" edge="1" parent="1" target="rFSqbBbNJpb0EMWmcOZD-359">
          <mxGeometry width="50" height="50" relative="1" as="geometry">
            <mxPoint x="619" y="465" as="sourcePoint" />
            <mxPoint x="670" y="544" as="targetPoint" />
          </mxGeometry>
        </mxCell>
        <mxCell id="rFSqbBbNJpb0EMWmcOZD-538" value="" style="endArrow=classic;html=1;rounded=0;entryX=0;entryY=0.5;entryDx=0;entryDy=0;strokeColor=default;shadow=1;" edge="1" parent="1" target="rFSqbBbNJpb0EMWmcOZD-359">
          <mxGeometry width="50" height="50" relative="1" as="geometry">
            <mxPoint x="620" y="540" as="sourcePoint" />
            <mxPoint x="700" y="495" as="targetPoint" />
          </mxGeometry>
        </mxCell>
        <mxCell id="rFSqbBbNJpb0EMWmcOZD-570" value="" style="ellipse;whiteSpace=wrap;html=1;aspect=fixed;shadow=1;" vertex="1" parent="1">
          <mxGeometry x="603" y="498" width="3" height="3" as="geometry" />
        </mxCell>
        <mxCell id="rFSqbBbNJpb0EMWmcOZD-571" value="" style="ellipse;whiteSpace=wrap;html=1;aspect=fixed;shadow=1;" vertex="1" parent="1">
          <mxGeometry x="603" y="508" width="3" height="3" as="geometry" />
        </mxCell>
        <mxCell id="rFSqbBbNJpb0EMWmcOZD-603" value="" style="ellipse;whiteSpace=wrap;html=1;aspect=fixed;shadow=1;" vertex="1" parent="1">
          <mxGeometry x="533" y="498" width="3" height="3" as="geometry" />
        </mxCell>
        <mxCell id="rFSqbBbNJpb0EMWmcOZD-604" value="" style="ellipse;whiteSpace=wrap;html=1;aspect=fixed;shadow=1;" vertex="1" parent="1">
          <mxGeometry x="533" y="508" width="3" height="3" as="geometry" />
        </mxCell>
        <mxCell id="rFSqbBbNJpb0EMWmcOZD-605" value="" style="ellipse;whiteSpace=wrap;html=1;aspect=fixed;shadow=1;" vertex="1" parent="1">
          <mxGeometry x="533" y="488" width="3" height="3" as="geometry" />
        </mxCell>
        <mxCell id="rFSqbBbNJpb0EMWmcOZD-607" value="" style="ellipse;whiteSpace=wrap;html=1;aspect=fixed;fillColor=#dae8fc;strokeColor=#6c8ebf;gradientColor=#7ea6e0;shadow=1;" vertex="1" parent="1">
          <mxGeometry x="518" y="370" width="30" height="30" as="geometry" />
        </mxCell>
        <mxCell id="rFSqbBbNJpb0EMWmcOZD-608" value="" style="ellipse;whiteSpace=wrap;html=1;aspect=fixed;fillColor=#dae8fc;strokeColor=#6c8ebf;gradientColor=#7ea6e0;shadow=1;" vertex="1" parent="1">
          <mxGeometry x="518" y="410" width="30" height="30" as="geometry" />
        </mxCell>
        <mxCell id="rFSqbBbNJpb0EMWmcOZD-609" value="" style="ellipse;whiteSpace=wrap;html=1;aspect=fixed;fillColor=#dae8fc;strokeColor=#6c8ebf;gradientColor=#7ea6e0;shadow=1;" vertex="1" parent="1">
          <mxGeometry x="518" y="450" width="30" height="30" as="geometry" />
        </mxCell>
        <mxCell id="rFSqbBbNJpb0EMWmcOZD-610" value="" style="ellipse;whiteSpace=wrap;html=1;aspect=fixed;fillColor=#dae8fc;strokeColor=#6c8ebf;gradientColor=#7ea6e0;shadow=1;" vertex="1" parent="1">
          <mxGeometry x="518" y="528" width="30" height="30" as="geometry" />
        </mxCell>
        <mxCell id="rFSqbBbNJpb0EMWmcOZD-611" value="" style="ellipse;whiteSpace=wrap;html=1;aspect=fixed;fillColor=#dae8fc;strokeColor=#6c8ebf;gradientColor=#7ea6e0;shadow=1;" vertex="1" parent="1">
          <mxGeometry x="589" y="450" width="30" height="30" as="geometry" />
        </mxCell>
        <mxCell id="rFSqbBbNJpb0EMWmcOZD-612" value="" style="ellipse;whiteSpace=wrap;html=1;aspect=fixed;fillColor=#dae8fc;strokeColor=#6c8ebf;gradientColor=#7ea6e0;shadow=1;" vertex="1" parent="1">
          <mxGeometry x="589" y="410" width="30" height="30" as="geometry" />
        </mxCell>
        <mxCell id="rFSqbBbNJpb0EMWmcOZD-613" value="" style="ellipse;whiteSpace=wrap;html=1;aspect=fixed;fillColor=#dae8fc;strokeColor=#6c8ebf;gradientColor=#7ea6e0;shadow=1;" vertex="1" parent="1">
          <mxGeometry x="589" y="370" width="30" height="30" as="geometry" />
        </mxCell>
        <mxCell id="rFSqbBbNJpb0EMWmcOZD-614" value="" style="ellipse;whiteSpace=wrap;html=1;aspect=fixed;fillColor=#dae8fc;strokeColor=#6c8ebf;gradientColor=#7ea6e0;shadow=1;" vertex="1" parent="1">
          <mxGeometry x="589" y="330" width="30" height="30" as="geometry" />
        </mxCell>
        <mxCell id="rFSqbBbNJpb0EMWmcOZD-615" value="" style="ellipse;whiteSpace=wrap;html=1;aspect=fixed;fillColor=#dae8fc;strokeColor=#6c8ebf;gradientColor=#7ea6e0;shadow=1;" vertex="1" parent="1">
          <mxGeometry x="589" y="528" width="30" height="30" as="geometry" />
        </mxCell>
        <mxCell id="rFSqbBbNJpb0EMWmcOZD-21" value="" style="rounded=1;whiteSpace=wrap;html=1;strokeWidth=3;direction=south;strokeColor=default;shadow=1;" vertex="1" parent="1">
          <mxGeometry x="230" y="320" width="60" height="240" as="geometry" />
        </mxCell>
        <mxCell id="rFSqbBbNJpb0EMWmcOZD-22" value="" style="endArrow=none;html=1;rounded=0;entryX=0.25;entryY=0;entryDx=0;entryDy=0;exitX=0.25;exitY=1;exitDx=0;exitDy=0;strokeColor=default;shadow=0;" edge="1" parent="1">
          <mxGeometry width="50" height="50" relative="1" as="geometry">
            <mxPoint x="230" y="360" as="sourcePoint" />
            <mxPoint x="290" y="360" as="targetPoint" />
          </mxGeometry>
        </mxCell>
        <mxCell id="rFSqbBbNJpb0EMWmcOZD-23" value="" style="endArrow=none;html=1;rounded=0;entryX=0.25;entryY=0;entryDx=0;entryDy=0;exitX=0.25;exitY=1;exitDx=0;exitDy=0;strokeColor=default;shadow=0;" edge="1" parent="1">
          <mxGeometry width="50" height="50" relative="1" as="geometry">
            <mxPoint x="230" y="399.76" as="sourcePoint" />
            <mxPoint x="290" y="399.76" as="targetPoint" />
          </mxGeometry>
        </mxCell>
        <mxCell id="rFSqbBbNJpb0EMWmcOZD-24" value="" style="endArrow=none;html=1;rounded=0;entryX=0.25;entryY=0;entryDx=0;entryDy=0;exitX=0.25;exitY=1;exitDx=0;exitDy=0;strokeColor=default;shadow=0;" edge="1" parent="1">
          <mxGeometry width="50" height="50" relative="1" as="geometry">
            <mxPoint x="230" y="440" as="sourcePoint" />
            <mxPoint x="290" y="440" as="targetPoint" />
          </mxGeometry>
        </mxCell>
        <mxCell id="rFSqbBbNJpb0EMWmcOZD-25" value="" style="endArrow=none;html=1;rounded=0;entryX=0.25;entryY=0;entryDx=0;entryDy=0;exitX=0.25;exitY=1;exitDx=0;exitDy=0;strokeColor=default;shadow=0;" edge="1" parent="1">
          <mxGeometry width="50" height="50" relative="1" as="geometry">
            <mxPoint x="230" y="480" as="sourcePoint" />
            <mxPoint x="290" y="480" as="targetPoint" />
          </mxGeometry>
        </mxCell>
        <mxCell id="rFSqbBbNJpb0EMWmcOZD-26" value="" style="endArrow=none;html=1;rounded=0;entryX=0.25;entryY=0;entryDx=0;entryDy=0;exitX=0.25;exitY=1;exitDx=0;exitDy=0;strokeColor=default;shadow=0;" edge="1" parent="1">
          <mxGeometry width="50" height="50" relative="1" as="geometry">
            <mxPoint x="230" y="520" as="sourcePoint" />
            <mxPoint x="290" y="520" as="targetPoint" />
          </mxGeometry>
        </mxCell>
        <mxCell id="rFSqbBbNJpb0EMWmcOZD-29" value="" style="endArrow=none;html=1;rounded=0;entryX=0.25;entryY=0;entryDx=0;entryDy=0;exitX=0.25;exitY=1;exitDx=0;exitDy=0;strokeColor=default;shadow=0;" edge="1" parent="1">
          <mxGeometry width="50" height="50" relative="1" as="geometry">
            <mxPoint x="230" y="380" as="sourcePoint" />
            <mxPoint x="290" y="380" as="targetPoint" />
          </mxGeometry>
        </mxCell>
        <mxCell id="rFSqbBbNJpb0EMWmcOZD-30" value="" style="endArrow=none;html=1;rounded=0;entryX=0.25;entryY=0;entryDx=0;entryDy=0;exitX=0.25;exitY=1;exitDx=0;exitDy=0;strokeColor=default;shadow=0;" edge="1" parent="1">
          <mxGeometry width="50" height="50" relative="1" as="geometry">
            <mxPoint x="230" y="420" as="sourcePoint" />
            <mxPoint x="290" y="420" as="targetPoint" />
          </mxGeometry>
        </mxCell>
        <mxCell id="rFSqbBbNJpb0EMWmcOZD-31" value="" style="endArrow=none;html=1;rounded=0;entryX=0.25;entryY=0;entryDx=0;entryDy=0;exitX=0.25;exitY=1;exitDx=0;exitDy=0;strokeColor=default;shadow=0;" edge="1" parent="1">
          <mxGeometry width="50" height="50" relative="1" as="geometry">
            <mxPoint x="230" y="459.76" as="sourcePoint" />
            <mxPoint x="290" y="459.76" as="targetPoint" />
          </mxGeometry>
        </mxCell>
        <mxCell id="rFSqbBbNJpb0EMWmcOZD-32" value="" style="endArrow=none;html=1;rounded=0;entryX=0.25;entryY=0;entryDx=0;entryDy=0;exitX=0.25;exitY=1;exitDx=0;exitDy=0;strokeColor=default;shadow=0;" edge="1" parent="1">
          <mxGeometry width="50" height="50" relative="1" as="geometry">
            <mxPoint x="230" y="500" as="sourcePoint" />
            <mxPoint x="290" y="500" as="targetPoint" />
          </mxGeometry>
        </mxCell>
        <mxCell id="rFSqbBbNJpb0EMWmcOZD-33" value="" style="endArrow=none;html=1;rounded=0;entryX=0.25;entryY=0;entryDx=0;entryDy=0;exitX=0.25;exitY=1;exitDx=0;exitDy=0;strokeColor=default;shadow=0;" edge="1" parent="1">
          <mxGeometry width="50" height="50" relative="1" as="geometry">
            <mxPoint x="230" y="540" as="sourcePoint" />
            <mxPoint x="290" y="540" as="targetPoint" />
          </mxGeometry>
        </mxCell>
        <mxCell id="rFSqbBbNJpb0EMWmcOZD-97" value="" style="endArrow=none;html=1;rounded=0;entryX=0.25;entryY=0;entryDx=0;entryDy=0;exitX=0.25;exitY=1;exitDx=0;exitDy=0;strokeColor=default;shadow=0;" edge="1" parent="1">
          <mxGeometry width="50" height="50" relative="1" as="geometry">
            <mxPoint x="230" y="340" as="sourcePoint" />
            <mxPoint x="290" y="340" as="targetPoint" />
          </mxGeometry>
        </mxCell>
        <mxCell id="rFSqbBbNJpb0EMWmcOZD-621" value="&lt;font face=&quot;Times New Roman&quot;&gt;P1&lt;/font&gt;" style="text;html=1;align=center;verticalAlign=middle;whiteSpace=wrap;rounded=0;shadow=0;" vertex="1" parent="1">
          <mxGeometry x="229" y="317" width="60" height="30" as="geometry" />
        </mxCell>
        <mxCell id="rFSqbBbNJpb0EMWmcOZD-622" value="&lt;font face=&quot;Times New Roman&quot;&gt;P2&lt;/font&gt;" style="text;html=1;align=center;verticalAlign=middle;whiteSpace=wrap;rounded=0;shadow=0;" vertex="1" parent="1">
          <mxGeometry x="229" y="337" width="60" height="30" as="geometry" />
        </mxCell>
        <mxCell id="rFSqbBbNJpb0EMWmcOZD-623" value="&lt;font face=&quot;Times New Roman&quot;&gt;P3&lt;/font&gt;" style="text;html=1;align=center;verticalAlign=middle;whiteSpace=wrap;rounded=0;shadow=0;" vertex="1" parent="1">
          <mxGeometry x="229" y="358" width="60" height="30" as="geometry" />
        </mxCell>
        <mxCell id="rFSqbBbNJpb0EMWmcOZD-624" value="&lt;font face=&quot;Times New Roman&quot;&gt;P4&lt;/font&gt;" style="text;html=1;align=center;verticalAlign=middle;whiteSpace=wrap;rounded=0;shadow=0;" vertex="1" parent="1">
          <mxGeometry x="229" y="377" width="60" height="30" as="geometry" />
        </mxCell>
        <mxCell id="rFSqbBbNJpb0EMWmcOZD-628" value="" style="ellipse;whiteSpace=wrap;html=1;aspect=fixed;shadow=0;" vertex="1" parent="1">
          <mxGeometry x="257" y="489" width="3" height="3" as="geometry" />
        </mxCell>
        <mxCell id="rFSqbBbNJpb0EMWmcOZD-629" value="" style="ellipse;whiteSpace=wrap;html=1;aspect=fixed;shadow=0;" vertex="1" parent="1">
          <mxGeometry x="257" y="469" width="3" height="3" as="geometry" />
        </mxCell>
        <mxCell id="rFSqbBbNJpb0EMWmcOZD-630" value="" style="ellipse;whiteSpace=wrap;html=1;aspect=fixed;shadow=0;" vertex="1" parent="1">
          <mxGeometry x="257" y="449" width="3" height="3" as="geometry" />
        </mxCell>
        <mxCell id="rFSqbBbNJpb0EMWmcOZD-631" value="" style="ellipse;whiteSpace=wrap;html=1;aspect=fixed;shadow=0;" vertex="1" parent="1">
          <mxGeometry x="257" y="429" width="3" height="3" as="geometry" />
        </mxCell>
        <mxCell id="rFSqbBbNJpb0EMWmcOZD-632" value="" style="ellipse;whiteSpace=wrap;html=1;aspect=fixed;shadow=0;" vertex="1" parent="1">
          <mxGeometry x="257" y="409" width="3" height="3" as="geometry" />
        </mxCell>
        <mxCell id="rFSqbBbNJpb0EMWmcOZD-633" value="" style="ellipse;whiteSpace=wrap;html=1;aspect=fixed;shadow=0;" vertex="1" parent="1">
          <mxGeometry x="257" y="509" width="3" height="3" as="geometry" />
        </mxCell>
        <mxCell id="rFSqbBbNJpb0EMWmcOZD-634" value="" style="ellipse;whiteSpace=wrap;html=1;aspect=fixed;shadow=0;" vertex="1" parent="1">
          <mxGeometry x="257" y="529" width="3" height="3" as="geometry" />
        </mxCell>
        <mxCell id="rFSqbBbNJpb0EMWmcOZD-635" value="&lt;font face=&quot;Times New Roman&quot;&gt;Pn&lt;/font&gt;" style="text;html=1;align=center;verticalAlign=middle;whiteSpace=wrap;rounded=0;shadow=1;" vertex="1" parent="1">
          <mxGeometry x="229" y="537" width="60" height="30" as="geometry" />
        </mxCell>
        <mxCell id="rFSqbBbNJpb0EMWmcOZD-637" value="&lt;font face=&quot;Times New Roman&quot;&gt;&lt;b&gt;Conv1D&lt;/b&gt;&lt;/font&gt;" style="text;html=1;align=center;verticalAlign=middle;whiteSpace=wrap;rounded=1;shadow=1;fillColor=#f9f7ed;strokeColor=#36393d;" vertex="1" parent="1">
          <mxGeometry x="335" y="570" width="60" height="30" as="geometry" />
        </mxCell>
        <mxCell id="rFSqbBbNJpb0EMWmcOZD-638" value="&lt;font face=&quot;Times New Roman&quot;&gt;&lt;b&gt;Flatten&lt;/b&gt;&lt;/font&gt;" style="text;html=1;align=center;verticalAlign=middle;whiteSpace=wrap;rounded=1;shadow=1;fillColor=#f5f5f5;gradientColor=#b3b3b3;strokeColor=#666666;" vertex="1" parent="1">
          <mxGeometry x="425" y="570" width="60" height="30" as="geometry" />
        </mxCell>
        <mxCell id="rFSqbBbNJpb0EMWmcOZD-639" value="&lt;font face=&quot;Times New Roman&quot;&gt;&lt;b&gt;Dense&lt;/b&gt;&lt;/font&gt;" style="text;html=1;align=center;verticalAlign=middle;whiteSpace=wrap;rounded=1;shadow=1;fillColor=#dae8fc;gradientColor=#7ea6e0;strokeColor=#6c8ebf;" vertex="1" parent="1">
          <mxGeometry x="525" y="570" width="60" height="30" as="geometry" />
        </mxCell>
        <mxCell id="rFSqbBbNJpb0EMWmcOZD-641" value="&lt;font face=&quot;Times New Roman&quot;&gt;&lt;b&gt;Input&lt;/b&gt;&lt;/font&gt;" style="text;html=1;align=center;verticalAlign=middle;whiteSpace=wrap;rounded=1;shadow=1;strokeColor=default;" vertex="1" parent="1">
          <mxGeometry x="229" y="570" width="60" height="30" as="geometry" />
        </mxCell>
        <mxCell id="rFSqbBbNJpb0EMWmcOZD-644" value="&lt;font style=&quot;font-size: 10px;&quot; face=&quot;Times New Roman&quot;&gt;&lt;b&gt;PM&lt;sub&gt;2.5&lt;/sub&gt;&lt;/b&gt;&lt;/font&gt;" style="text;html=1;align=center;verticalAlign=middle;whiteSpace=wrap;rounded=0;shadow=0;" vertex="1" parent="1">
          <mxGeometry x="656" y="409" width="60" height="30" as="geometry" />
        </mxCell>
      </root>
    </mxGraphModel>
  </diagram>
</mxfile>
